<svg width="20" height="20" viewBox="0 0 20 20" fill="none" xmlns="http://www.w3.org/2000/svg">
<path d="M17.7143 11.2857H11.2857V17.7143C11.2857 18.4214 10.7071 19 10 19C9.29286 19 8.71429 18.4214 8.71429 17.7143V11.2857H2.28571C1.57857 11.2857 1 10.7071 1 10C1 9.29286 1.57857 8.71429 2.28571 8.71429H8.71429V2.28571C8.71429 1.57857 9.29286 1 10 1C10.7071 1 11.2857 1.57857 11.2857 2.28571V8.71429H17.7143C18.4214 8.71429 19 9.29286 19 10C19 10.7071 18.4214 11.2857 17.7143 11.2857Z" fill="#438ef2"/>
</svg>
