<svg width="20" height="20" viewBox="0 0 20 20" fill="none" xmlns="http://www.w3.org/2000/svg">
<g clip-path="url(#clip0_737_251)">
<path d="M18.52 3.5H16.5V1.48C16.5 0.94 16.06 0.5 15.52 0.5H15.49C14.94 0.5 14.5 0.94 14.5 1.48V3.5H12.49C11.95 3.5 11.51 3.94 11.5 4.48V4.51C11.5 5.06 11.94 5.5 12.49 5.5H14.5V7.51C14.5 8.05 14.94 8.5 15.49 8.49H15.52C16.06 8.49 16.5 8.05 16.5 7.51V5.5H18.52C19.06 5.5 19.5 5.06 19.5 4.52V4.48C19.5 3.94 19.06 3.5 18.52 3.5ZM13.5 7.51V6.5H12.49C11.96 6.5 11.46 6.29 11.08 5.92C10.71 5.54 10.5 5.04 10.5 4.48C10.5 4.12 10.6 3.79 10.77 3.5H2.5C1.4 3.5 0.5 4.4 0.5 5.5V17.5C0.5 18.6 1.4 19.5 2.5 19.5H14.5C15.6 19.5 16.5 18.6 16.5 17.5V9.22C16.2 9.39 15.86 9.5 15.48 9.5C14.39 9.49 13.5 8.6 13.5 7.51ZM13.46 17.5H3.5C3.09 17.5 2.85 17.03 3.1 16.7L5.08 14.07C5.29 13.79 5.7 13.81 5.9 14.09L7.5 16.5L10.11 13.02C10.31 12.76 10.7 12.75 10.9 13.01L13.85 16.69C14.11 17.02 13.88 17.5 13.46 17.5Z" fill="#555"/>
</g>
<defs>
<clipPath id="clip0_737_251">
<rect width="20" height="20" fill="white"/>
</clipPath>
</defs>
</svg>
