<svg xmlns="http://www.w3.org/2000/svg" width="20.05" height="20" viewBox="0 0 20.05 20">
  <g id="ic_alert" transform="translate(-1779.973 -1)">
    <rect id="frame20" width="20" height="20" transform="translate(1780 1)" fill="none"/>
    <g id="alert" transform="translate(1 -30.002)">
      <path id="alert1" d="M16.954,15.75H11.3a2.262,2.262,0,0,1-4.523,0H1.123A1.085,1.085,0,0,1,.1,14.963a1.2,1.2,0,0,1,.339-1.238c1.131-.9,2.375-2.137,2.375-3.6V6.75C2.819,3.038,5.307,0,9.038,0s6.223,3.038,6.223,6.75v3.375c0,1.463,1.24,2.7,2.371,3.6a1.062,1.062,0,0,1,.339,1.238A1.085,1.085,0,0,1,16.954,15.75Z" transform="translate(1779.938 32.002)" fill="none" stroke="#555" stroke-width="2" fill-rule="evenodd"/>
      <path id="alert2" d="M0,0H5" transform="translate(1786.5 47.75)" fill="none" stroke="#555" stroke-width="2"/>
    </g>
  </g>
</svg>
