<svg width="20" height="20" viewBox="0 0 20 20" fill="none" xmlns="http://www.w3.org/2000/svg">
<path d="M18.6007 1.41297C18.0683 0.880546 17.2082 0.880546 16.6758 1.41297L10 8.07509L3.32423 1.39932C2.79181 0.866894 1.93174 0.866894 1.39932 1.39932C0.866894 1.93174 0.866894 2.79181 1.39932 3.32423L8.07509 10L1.39932 16.6758C0.866894 17.2082 0.866894 18.0683 1.39932 18.6007C1.93174 19.1331 2.79181 19.1331 3.32423 18.6007L10 11.9249L16.6758 18.6007C17.2082 19.1331 18.0683 19.1331 18.6007 18.6007C19.1331 18.0683 19.1331 17.2082 18.6007 16.6758L11.9249 10L18.6007 3.32423C19.1195 2.80546 19.1195 1.93174 18.6007 1.41297Z" fill="#fff"/>
</svg>
