<svg width="300" height="300" viewBox="0 0 300 300" fill="none" xmlns="http://www.w3.org/2000/svg">
<rect x="20" y="30" width="260" height="173.333" rx="24" fill="#D3E4FC"/>
<path fill-rule="evenodd" clip-rule="evenodd" d="M150 105C172.091 105 190 89.33 190 70H276C289.255 70 300 80.7452 300 94V246C300 259.255 289.255 270 276 270H24C10.7452 270 0 259.255 0 246V94C0 80.7452 10.7452 70 24 70H110C110 89.33 127.909 105 150 105Z" fill="white"/>
<path d="M110.5 176H111.2L106.6 153.2C105.6 148.1 108.3 144.7 112.6 144.3C117 143.8 119.7 146 120.6 150.9L125 176H134.8L140.7 151.6C141.8 147.2 145 144.3 150 144.3C155 144.3 158.2 147.2 159.3 151.6L165.2 176H174.9L179.4 150.9C180.3 146 183 143.8 187.4 144.3C191.7 144.7 194.4 148.1 193.4 153.2L188.7 176H189.5C194.5 176 198.1 177.3 198.1 182.3C198.1 187.3 194.5 188.6 189.5 188.6H186.2L181.6 211.3C180.4 217.3 176.4 219.6 171.1 219.6C165.7 219.6 162.2 217 160.8 211.3L155.2 188.6H144.8L139.2 211.3C137.8 217 134.3 219.6 128.9 219.6C123.6 219.6 119.6 217.3 118.4 211.3L113.8 188.6H110.5C105.5 188.6 101.9 187.3 101.9 182.3C101.9 177.3 105.5 176 110.5 176ZM170.7 198.8H170.9L172.7 188.6H168.2L170.7 198.8ZM129.1 198.8H129.3L131.7 188.6H127.3L129.1 198.8ZM149.8 168.3L147.9 176H152.1L150.2 168.3H149.8Z" fill="#438EF2"/>
</svg>
