<svg xmlns="http://www.w3.org/2000/svg" width="20" height="20" viewBox="0 0 20 20">
  <g id="cashbook_people_222" transform="translate(-1870)">
    <rect id="frame20" width="20" height="20" transform="translate(1870)" fill="none"/>
    <path id="_2" data-name="2" d="M7,10.143A2.571,2.571,0,1,0,4.429,7.571,2.561,2.561,0,0,0,7,10.143Zm0,1.714c-2,0-6,1-6,3V17H13V14.857C13,12.86,9,11.857,7,11.857Z" transform="translate(1873)" fill="#222"/>
    <path id="_2-2" data-name="2" d="M6,9.286A2.143,2.143,0,1,0,3.857,7.143,2.134,2.134,0,0,0,6,9.286Zm0,1.429c-1.664,0-5,.836-5,2.5V15H4.2V14c0-1.4,2.938-2.5,3.7-2.7C7.9,11.3,7.6,10.756,6,10.714Z" transform="translate(1869)" fill="#222"/>
    <path id="_2-3" data-name="2" d="M3.136,9.286A2.143,2.143,0,1,1,5.279,7.143,2.134,2.134,0,0,1,3.136,9.286Zm0,1.429c1.664,0,5,.836,5,2.5V15h-3.2V14c0-1.4-2.938-2.5-3.7-2.7C1.24,11.3,1.536,10.756,3.136,10.714Z" transform="translate(1881.864)" fill="#222"/>
  </g>
</svg>
