<svg width="24" height="24" viewBox="0 0 24 24" fill="none" xmlns="http://www.w3.org/2000/svg">
<g clip-path="url(#clip0_670_302)">
<path d="M17.0068 4C15.2333 4 13.3233 4.3845 12.0045 5.44187C10.6858 4.3845 8.77581 4 7.00227 4C5.68349 4 4.28286 4.21147 3.1096 4.75939C2.44566 5.0766 2 5.75909 2 6.5377V17.3806C2 18.6302 3.1096 19.553 4.25557 19.2454C5.14689 19.0051 6.09277 18.8994 7.00227 18.8994C8.4211 18.8994 9.93088 19.1493 11.1496 19.7837C11.6953 20.0721 12.3138 20.0721 12.8504 19.7837C14.0691 19.1397 15.5789 18.8994 16.9977 18.8994C17.9072 18.8994 18.8531 19.0051 19.7444 19.2454C20.8904 19.5626 22 18.6398 22 17.3806V6.5377C22 5.75909 21.5543 5.0766 20.8904 4.75939C19.7262 4.21147 18.3256 4 17.0068 4ZM20.1901 16.2367C20.1901 16.8423 19.6626 17.2845 19.0987 17.1787C18.4166 17.0442 17.7071 16.9865 17.0068 16.9865C15.4607 16.9865 13.2324 17.6113 12.0045 18.4284V7.36437C13.2324 6.54731 15.4607 5.9225 17.0068 5.9225C17.8436 5.9225 18.6712 6.00901 19.4625 6.19165C19.8809 6.28777 20.1901 6.68189 20.1901 7.13367V16.2367Z" fill="#222"/>
<path d="M13.8054 10.2578C13.5144 10.2578 13.2506 10.0655 13.1597 9.75794C13.0414 9.38305 13.2415 8.96972 13.5962 8.85437C14.9969 8.37374 16.8068 8.21994 18.4712 8.4218C18.8441 8.46987 19.1169 8.82553 19.0715 9.21964C19.026 9.61375 18.6895 9.90213 18.3166 9.85407C16.8432 9.67143 15.2333 9.81561 14.0146 10.229C13.9419 10.2386 13.8691 10.2578 13.8054 10.2578Z" fill="#222"/>
<path d="M13.8054 12.8148C13.5144 12.8148 13.2506 12.6225 13.1597 12.3149C13.0414 11.9401 13.2415 11.5267 13.5962 11.4114C14.9878 10.9307 16.8068 10.7769 18.4712 10.9788C18.8441 11.0269 19.1169 11.3825 19.0715 11.7766C19.026 12.1708 18.6895 12.4591 18.3166 12.4111C16.8432 12.2284 15.2333 12.3726 14.0146 12.786C13.9419 12.8052 13.8691 12.8148 13.8054 12.8148Z" fill="#222"/>
<path d="M13.8054 15.3717C13.5144 15.3717 13.2506 15.1794 13.1597 14.8718C13.0414 14.4969 13.2415 14.0836 13.5962 13.9683C14.9878 13.4876 16.8068 13.3338 18.4712 13.5357C18.8441 13.5838 19.1169 13.9394 19.0715 14.3335C19.026 14.7276 18.6895 15.0064 18.3166 14.968C16.8432 14.7853 15.2333 14.9295 14.0146 15.3428C13.9419 15.3621 13.8691 15.3717 13.8054 15.3717Z" fill="#222"/>
</g>
<defs>
<clipPath id="clip0_670_302">
<rect width="24" height="24" fill="#222"/>
</clipPath>
</defs>
</svg>
