<svg xmlns="http://www.w3.org/2000/svg" width="20" height="20" viewBox="0 0 20 20">
  <g id="ic_won" transform="translate(-8921 -1828)">
    <rect id="frame" width="20" height="20" transform="translate(8921 1828)" fill="none"/>
    <path id="빼기_7" data-name="빼기 7" d="M1587,1730a9,9,0,1,1,9-9A9.01,9.01,0,0,1,1587,1730Zm-.031-10.243h.044l1.166,4.621a1.063,1.063,0,0,0,1.133.913,1.052,1.052,0,0,0,1.155-.913l.587-2.885a.516.516,0,0,0,.112.013h1.267a.5.5,0,0,0,0-1h-1.178l.511-2.517a.854.854,0,0,0-.123-.692.756.756,0,0,0-.548-.287,1.135,1.135,0,0,0-.13-.008c-.416,0-.672.247-.761.734l-.913,5.159h-.023l-1.243-5.082a1.067,1.067,0,0,0-2.068,0l-1.243,5.082h-.022l-.913-5.159c-.089-.487-.345-.734-.761-.734a1.135,1.135,0,0,0-.13.008.755.755,0,0,0-.547.287.854.854,0,0,0-.123.693l.511,2.517H1581.5a.5.5,0,0,0,0,1h1.267a.491.491,0,0,0,.16-.026l.589,2.9a1.173,1.173,0,0,0,2.288,0l1.166-4.62Z" transform="translate(7344 117)" fill="#222"/>
  </g>
</svg>
